<?xml version="1.0" encoding="UTF-8"?>
<svg xmlns="http://www.w3.org/2000/svg" width="1280" height="720" viewBox="0 0 1280 720" role="img" aria-label="Chaos Negotiator">
  <defs>
    <linearGradient id="bg" x1="0" y1="0" x2="1" y2="1">
      <stop offset="0%" stop-color="#0a1020"/>
      <stop offset="55%" stop-color="#162a59"/>
      <stop offset="100%" stop-color="#27498f"/>
    </linearGradient>
    <radialGradient id="glow1" cx="0.15" cy="0.1" r="0.5">
      <stop offset="0%" stop-color="#7ea2ff" stop-opacity="0.45"/>
      <stop offset="100%" stop-color="#7ea2ff" stop-opacity="0"/>
    </radialGradient>
    <radialGradient id="glow2" cx="0.9" cy="0.9" r="0.45">
      <stop offset="0%" stop-color="#5ee2d8" stop-opacity="0.28"/>
      <stop offset="100%" stop-color="#5ee2d8" stop-opacity="0"/>
    </radialGradient>
    <filter id="softShadow" x="-20%" y="-20%" width="140%" height="140%">
      <feDropShadow dx="0" dy="8" stdDeviation="12" flood-color="#000" flood-opacity="0.35"/>
    </filter>
  </defs>

  <rect width="100%" height="100%" fill="url(#bg)"/>
  <rect width="100%" height="100%" fill="url(#glow1)"/>
  <rect width="100%" height="100%" fill="url(#glow2)"/>

  <g opacity="0.25" stroke="#c6d7ff" stroke-width="1">
    <line x1="60" y1="570" x2="1220" y2="570"/>
    <line x1="60" y1="605" x2="1220" y2="605"/>
    <line x1="60" y1="640" x2="1220" y2="640"/>
  </g>

  <g filter="url(#softShadow)">
    <rect x="58" y="58" rx="22" ry="22" width="1164" height="604" fill="rgba(7,12,28,0.30)" stroke="#5e83de" stroke-opacity="0.45"/>
  </g>

  <g transform="translate(96 124)">
    <text x="0" y="0" fill="#cddcff" font-family="Segoe UI, Inter, Arial" font-size="24" font-weight="600">AI DevOps • Microsoft Azure</text>
    <text x="0" y="90" fill="#f2f6ff" font-family="Segoe UI, Inter, Arial" font-size="78" font-weight="800">Chaos Negotiator</text>
    <text x="0" y="152" fill="#d8e4ff" font-family="Segoe UI, Inter, Arial" font-size="34" font-weight="500">Deployment Contract AI Agent</text>
    <text x="0" y="214" fill="#9fb8ff" font-family="Segoe UI, Inter, Arial" font-size="24" font-weight="500">Treat every deploy like a contract between velocity and reliability</text>
  </g>

  <g transform="translate(96 430)">
    <rect x="0" y="0" rx="12" ry="12" width="254" height="52" fill="#1b2e62" stroke="#5d7dd6"/>
    <text x="22" y="33" fill="#e7efff" font-family="Segoe UI, Inter, Arial" font-size="20" font-weight="700">Risk Contracts</text>

    <rect x="274" y="0" rx="12" ry="12" width="254" height="52" fill="#1b2e62" stroke="#5d7dd6"/>
    <text x="296" y="33" fill="#e7efff" font-family="Segoe UI, Inter, Arial" font-size="20" font-weight="700">SLO Guardrails</text>

    <rect x="548" y="0" rx="12" ry="12" width="254" height="52" fill="#1b2e62" stroke="#5d7dd6"/>
    <text x="570" y="33" fill="#e7efff" font-family="Segoe UI, Inter, Arial" font-size="20" font-weight="700">Auto Rollback</text>
  </g>

  <text x="96" y="632" fill="#b8c9f7" font-family="Segoe UI, Inter, Arial" font-size="22">Live Demo • Azure Container Apps • GitHub Actions • Bicep IaC</text>
</svg>
